Nå er den tilbake; Walt Disneys tidløse klassiker byr på en fantastisk bilde- og lydopplevelse – og nå er den dessuten digitalt restaurert! Disneys 3. Klassiker inneholder også en oppdagelsesferd i det nye Disney Family museet samt annet nytt bonusmateriell slik at hele familien kan underholdes som aldri før. Se musikken få liv, hør hvordan bildene bryter ut i sang og nyt av Fantasia om og om igjen! 


Regissør
James Algar, Samuel Armstrong, Hamilton Luske 

Originaltittel
Fantasia 

Varighet
DVD: 1 tim 52 min  

Aldersgrense
Aldersgrense A 

Filmsamlinger
Klassiker 

Sjangre
Barn og familie, Musikk og dans, Tegnet/Animert 

Språk
DVD: Engelsk 

Dubbet
Dansk, Norsk 

Undertekster
DVD: Dansk, Engelsk, Norsk 

Releasedato
Produksjonsår: 1940

General
Complete name                            : D:FANTASIA -DVDrip norsk tale- Robban.avi
Format                                   : AVI
Format/Info                              : Audio Video Interleave
Format profile                           : OpenDML
File size                                : 1.34 GiB
Duration                                 : 1h 52mn
Overall bit rate mode                    : Variable
Overall bit rate                         : 1 701 Kbps
Movie name                               : FANTASIA.Title1.DVDRip
Writing application                      : Lavf53.32.100
Original source form/Name                : FANTASIA

Video
ID                                       : 0
Format                                   : AVC
Format/Info                              : Advanced Video Codec
Format profile                           : High@L4.1
Format settings, CABAC                   : Yes
Format settings, ReFrames                : 2 frames
Codec ID                                 : H264
Duration                                 : 1h 52mn
Bit rate mode                            : Variable
Bit rate                                 : 1 497 Kbps
Maximum bit rate                         : 2 244 Kbps
Width                                    : 720 pixels
Height                                   : 554 pixels
Display aspect ratio                     : 4:3
Frame rate                               : 25.000 fps
Color space                              : YUV
Chroma subsampling                       : 4:2:0
Bit depth                                : 8 bits
Scan type                                : Progressive
Bits/(Pixel*Frame)                       : 0.150
Stream size                              : 1.18 GiB (88%)

Audio
ID                                       : 1
Format                                   : AC-3
Format/Info                              : Audio Coding 3
Format profile                           : Dolby Digital
Mode extension                           : CM (complete main)
Format settings, Endianness              : Big
Codec ID                                 : 2000
Duration                                 : 1h 52mn
Bit rate mode                            : Constant
Bit rate                                 : 192 Kbps
Channel(s)                               : 2 channels
Channel positions                        : Front: L R
Sampling rate                            : 48.0 KHz
Bit depth                                : 16 bits
Compression mode                         : Lossy
Stream size                              : 154 MiB (11%)
Alignment                                : Aligned on interleaves
Interleave, duration                     : 32 ms (0.80 video frame)


 
